<svg width="142" height="42" viewBox="0 0 142 42" fill="none" xmlns="http://www.w3.org/2000/svg">
<rect width="142" height="42" rx="10" fill="black"/>
<rect x="0.5" y="0.5" width="141" height="41" rx="9.5" stroke="#A6A6A6" stroke-opacity="0.44"/>
<path d="M112.479 31.5013H114.442V18.3746H112.479V31.5013ZM130.158 23.1034L127.908 28.7943H127.841L125.505 23.1034H123.391L126.894 31.0571L124.896 35.4818H126.943L132.34 23.1034H130.158ZM119.026 30.0104C118.384 30.0104 117.487 29.6892 117.487 28.8956C117.487 27.8824 118.604 27.4941 119.568 27.4941C120.43 27.4941 120.837 27.6795 121.361 27.933C121.209 29.1491 120.16 30.0104 119.026 30.0104V30.0104ZM119.264 22.8162C117.843 22.8162 116.371 23.4413 115.762 24.826L117.504 25.552C117.876 24.826 118.57 24.5898 119.297 24.5898C120.312 24.5898 121.344 25.1972 121.361 26.2784V26.4133C121.006 26.2106 120.244 25.9068 119.314 25.9068C117.436 25.9068 115.524 26.9366 115.524 28.8619C115.524 30.6182 117.064 31.7498 118.789 31.7498C120.108 31.7498 120.837 31.1588 121.293 30.4661H121.361V31.48H123.257V26.4469C123.257 24.1164 121.513 22.8162 119.264 22.8162V22.8162ZM107.134 24.7013H104.342V20.2019H107.134C108.601 20.2019 109.434 21.4143 109.434 22.4515C109.434 23.4688 108.601 24.7013 107.134 24.7013V24.7013ZM107.083 18.3746H102.38V31.5013H104.342V26.5282H107.083C109.259 26.5282 111.397 24.9564 111.397 22.4515C111.397 19.9472 109.259 18.3746 107.083 18.3746ZM81.4377 30.0128C80.0818 30.0128 78.9469 28.8791 78.9469 27.3234C78.9469 25.7497 80.0818 24.5999 81.4377 24.5999C82.7764 24.5999 83.827 25.7497 83.827 27.3234C83.827 28.8791 82.7764 30.0128 81.4377 30.0128V30.0128ZM83.6914 23.8384H83.6236C83.1831 23.3141 82.3355 22.8405 81.2685 22.8405C79.0312 22.8405 76.9809 24.803 76.9809 27.3234C76.9809 29.8266 79.0312 31.772 81.2685 31.772C82.3355 31.772 83.1831 31.2982 83.6236 30.7572H83.6914V31.3995C83.6914 33.1087 82.7764 34.0217 81.3021 34.0217C80.0994 34.0217 79.3538 33.1591 79.0484 32.4319L77.3372 33.1423C77.8282 34.326 79.1327 35.7812 81.3021 35.7812C83.6071 35.7812 85.5559 34.4277 85.5559 31.1288V23.1111H83.6914V23.8384ZM86.9119 31.5013H88.8767V18.3746H86.9119V31.5013ZM91.7747 27.1709C91.7241 25.4453 93.1141 24.5659 94.1134 24.5659C94.8932 24.5659 95.5534 24.9552 95.7745 25.513L91.7747 27.1709ZM97.875 25.682C97.5023 24.6845 96.3671 22.8405 94.0455 22.8405C91.7405 22.8405 89.8258 24.6504 89.8258 27.3062C89.8258 29.8098 91.7241 31.772 94.2653 31.772C96.3156 31.772 97.5023 30.5206 97.9941 29.7929L96.4689 28.7778C95.9603 29.5222 95.2659 30.0128 94.2653 30.0128C93.2661 30.0128 92.5541 29.5559 92.0972 28.6593L98.0783 26.1897L97.875 25.682ZM50.2179 24.2107V26.1052H54.7593C54.6237 27.1709 54.2678 27.9489 53.7255 28.4903C53.0644 29.1498 52.0307 29.8774 50.2179 29.8774C47.4218 29.8774 45.2359 27.6277 45.2359 24.8366C45.2359 22.0455 47.4218 19.7955 50.2179 19.7955C51.7261 19.7955 52.8273 20.3877 53.6408 21.1489L54.9799 19.8123C53.8443 18.7298 52.3363 17.9009 50.2179 17.9009C46.3876 17.9009 43.168 21.0136 43.168 24.8366C43.168 28.6593 46.3876 31.772 50.2179 31.772C52.285 31.772 53.8443 31.0952 55.0642 29.8266C56.3182 28.5748 56.7081 26.8156 56.7081 25.3945C56.7081 24.9552 56.674 24.5491 56.6062 24.2107H50.2179ZM61.8713 30.0128C60.5153 30.0128 59.346 28.8963 59.346 27.3062C59.346 25.6992 60.5153 24.5999 61.8713 24.5999C63.2267 24.5999 64.396 25.6992 64.396 27.3062C64.396 28.8963 63.2267 30.0128 61.8713 30.0128V30.0128ZM61.8713 22.8405C59.3965 22.8405 57.3803 24.7181 57.3803 27.3062C57.3803 29.8774 59.3965 31.772 61.8713 31.772C64.3451 31.772 66.3617 29.8774 66.3617 27.3062C66.3617 24.7181 64.3451 22.8405 61.8713 22.8405ZM71.6669 30.0128C70.3119 30.0128 69.1422 28.8963 69.1422 27.3062C69.1422 25.6992 70.3119 24.5999 71.6669 24.5999C73.0229 24.5999 74.1918 25.6992 74.1918 27.3062C74.1918 28.8963 73.0229 30.0128 71.6669 30.0128ZM71.6669 22.8405C69.1931 22.8405 67.1769 24.7181 67.1769 27.3062C67.1769 29.8774 69.1931 31.772 71.6669 31.772C74.1417 31.772 76.1579 29.8774 76.1579 27.3062C76.1579 24.7181 74.1417 22.8405 71.6669 22.8405Z" fill="white"/>
<path d="M46.7825 13.8945C45.8395 13.8945 45.0284 13.5633 44.3744 12.9106C43.7201 12.2574 43.3887 11.4396 43.3887 10.4886C43.3887 9.53762 43.7202 8.72124 44.3744 8.06662C45.0284 7.41378 45.8395 7.08265 46.7825 7.08265C47.263 7.08265 47.7114 7.16549 48.1399 7.33797C48.5685 7.51048 48.9193 7.74995 49.1954 8.06333L49.2606 8.13737L48.5249 8.87155L48.4513 8.78131C48.2682 8.55667 48.0353 8.38215 47.7401 8.25529C47.446 8.12874 47.1239 8.07031 46.7825 8.07031C46.1183 8.07031 45.5672 8.29547 45.107 8.75322C45.1069 8.75332 45.1067 8.75331 45.1066 8.75343C44.6568 9.22041 44.4307 9.78896 44.4307 10.4886C44.4307 11.1888 44.6571 11.7574 45.1074 12.2246C45.5676 12.6821 46.1187 12.9085 46.7825 12.9085C47.3906 12.9085 47.8934 12.7391 48.2888 12.4036H48.289C48.6571 12.0914 48.878 11.6695 48.9561 11.1317H46.6773V10.1638H49.941L49.9549 10.2523C49.9817 10.4225 50.0005 10.5868 50.0005 10.7445C50.0005 11.6477 49.7247 12.385 49.1835 12.9274C48.5726 13.5739 47.7691 13.8945 46.7825 13.8945L46.7825 13.8945ZM75.1213 13.8945C74.1769 13.8945 73.3752 13.5631 72.7296 12.9106C72.7295 12.9105 72.7295 12.9105 72.7294 12.9104C72.7293 12.9103 72.7293 12.9102 72.7292 12.9101C72.0827 12.2646 71.762 11.4466 71.762 10.4886C71.762 9.53057 72.0827 8.71255 72.7292 8.06702C72.7292 8.06695 72.7293 8.06691 72.7294 8.06681L72.7296 8.0666C73.3752 7.41392 74.1769 7.08263 75.1213 7.08263C76.0639 7.08263 76.8659 7.414 77.5114 8.07644C78.1581 8.72187 78.479 9.53834 78.479 10.4886C78.479 11.4466 78.1583 12.2646 77.5118 12.9101L77.5116 12.9103C76.8656 13.5634 76.0563 13.8945 75.1213 13.8945L75.1213 13.8945ZM50.9345 13.7534V7.22374H51.0397H54.8411V8.2114H51.9584V10.0046H54.5584V10.9726H51.9584V12.7674H54.8411V13.7534H50.9345ZM57.232 13.7534V8.2114H55.4636V7.22374H60.0244V8.2114H59.9192H58.2559V13.7534H57.232ZM62.9391 13.7534V7.22374H63.9631V7.32874V13.7534H62.9391ZM66.5405 13.7534V8.2114H64.7721V7.22374H69.3328V8.2114H69.2277H67.5644V13.7534H66.5405ZM79.3879 13.7534V7.22374H80.5425L83.4809 11.9196L83.4556 11.0281V7.22374H84.4795V13.7534H83.4663L80.3865 8.82028L80.4118 9.71114V9.71257V13.7534H79.3879ZM75.1213 12.9085C75.7855 12.9085 76.3278 12.6824 76.7698 12.2254L76.7704 12.2246L76.771 12.2239C77.2193 11.7763 77.4387 11.2001 77.4387 10.4886C77.4387 9.77878 77.2192 9.2006 76.771 8.75318L76.7704 8.75255L76.7698 8.75192C76.3278 8.29504 75.7857 8.07024 75.1213 8.07024C74.4558 8.07024 73.9137 8.29465 73.4634 8.75151L73.463 8.75193C73.023 9.21021 72.8039 9.77898 72.8039 10.4885C72.8039 11.1998 73.0229 11.7668 73.463 12.2251L73.4634 12.2256C73.9138 12.6825 74.456 12.9085 75.1213 12.9085V12.9085Z" fill="white"/>
<path d="M21.7884 20.3949L10.5898 32.2599C10.5903 32.2624 10.5911 32.2645 10.5915 32.2669C10.935 33.5552 12.1138 34.5039 13.5128 34.5039C14.0721 34.5039 14.5972 34.353 15.0475 34.088L15.0832 34.0671L27.6886 26.8061L21.7884 20.3949" fill="#EA4335"/>
<path d="M33.1191 18.3743L33.1084 18.367L27.6663 15.2177L21.5352 20.6639L27.6876 26.8047L33.101 23.6867C34.0501 23.1753 34.6943 22.1765 34.6943 21.0248C34.6943 19.8813 34.0587 18.8875 33.1191 18.3743" fill="#FBBC04"/>
<path d="M10.591 9.73855C10.5237 9.98635 10.4883 10.2459 10.4883 10.5154V31.4814C10.4883 31.7505 10.5232 32.0109 10.5914 32.2578L22.1753 20.6963L10.591 9.73855Z" fill="#4285F4"/>
<path d="M21.8714 21L27.6677 15.2156L15.0766 7.92834C14.619 7.65471 14.0848 7.49679 13.5133 7.49679C12.1142 7.49679 10.9338 8.44715 10.5903 9.73707C10.5898 9.73833 10.5898 9.73917 10.5898 9.74033L21.8714 21Z" fill="#34A853"/>
</svg>
