<svg width="126" height="42" viewBox="0 0 126 42" fill="none" xmlns="http://www.w3.org/2000/svg">
<rect width="126" height="42" rx="10" fill="#0C0D10"/>
<rect x="0.5" y="0.5" width="125" height="41" rx="9.5" stroke="#A6A6A6" stroke-opacity="0.44"/>
<path d="M85.603 20.1623V22.5679H84.0952V24.1455H85.603V29.5057C85.603 31.336 86.431 32.0682 88.5141 32.0682C88.8801 32.0682 89.2288 32.0246 89.5338 31.9723V30.4121C89.2724 30.4383 89.1068 30.4557 88.8191 30.4557C87.8865 30.4557 87.4769 30.0199 87.4769 29.0263V24.1455H89.5338V22.5679H87.4769V20.1623H85.603Z" fill="white"/>
<path d="M94.8404 32.1989C97.612 32.1989 99.3116 30.3424 99.3116 27.2657C99.3116 24.2065 97.6033 22.3413 94.8404 22.3413C92.0687 22.3413 90.3604 24.2065 90.3604 27.2657C90.3604 30.3424 92.06 32.1989 94.8404 32.1989ZM94.8404 30.5342C93.2105 30.5342 92.2954 29.3401 92.2954 27.2657C92.2954 25.2088 93.2105 24.006 94.8404 24.006C96.4615 24.006 97.3854 25.2088 97.3854 27.2657C97.3854 29.3314 96.4615 30.5342 94.8404 30.5342Z" fill="white"/>
<path d="M100.766 32.0159H102.64V26.4116C102.64 25.0781 103.642 24.1803 105.063 24.1803C105.394 24.1803 105.952 24.2413 106.109 24.2936V22.4459C105.908 22.3936 105.551 22.3674 105.272 22.3674C104.034 22.3674 102.98 23.0473 102.709 23.9799H102.57V22.5243H100.766V32.0159Z" fill="white"/>
<path d="M110.761 23.9363C112.147 23.9363 113.054 24.9037 113.097 26.3942H108.304C108.408 24.9125 109.376 23.9363 110.761 23.9363ZM113.089 29.4534C112.74 30.1943 111.964 30.6039 110.831 30.6039C109.332 30.6039 108.365 29.5493 108.304 27.8846V27.78H115.006V27.1263C115.006 24.1455 113.411 22.3413 110.77 22.3413C108.094 22.3413 106.395 24.2675 106.395 27.3006C106.395 30.3337 108.059 32.1989 110.779 32.1989C112.949 32.1989 114.466 31.153 114.893 29.4534H113.089Z" fill="white"/>
<path d="M73.3142 28.5108C73.4588 30.8415 75.401 32.332 78.2918 32.332C81.3813 32.332 83.3145 30.7692 83.3145 28.2759C83.3145 26.3156 82.2124 25.2316 79.5384 24.6082L78.1021 24.2559C76.4038 23.8584 75.7172 23.3254 75.7172 22.395C75.7172 21.2206 76.7832 20.4527 78.3821 20.4527C79.8998 20.4527 80.9477 21.2025 81.1374 22.404H83.1068C82.9893 20.2088 81.0561 18.6641 78.4092 18.6641C75.5636 18.6641 73.6665 20.2088 73.6665 22.5305C73.6665 24.4456 74.7416 25.5839 77.0993 26.1349L78.7796 26.5414C80.5051 26.948 81.2639 27.5442 81.2639 28.5379C81.2639 29.6942 80.0714 30.5343 78.4454 30.5343C76.7019 30.5343 75.4914 29.7484 75.3197 28.5108H73.3142Z" fill="white"/>
<path d="M53.9025 22.3674C52.6126 22.3674 51.497 23.0124 50.9217 24.0932H50.7823V22.5243H48.9781V35.171H50.852V30.5777H51.0002C51.497 31.5801 52.569 32.1727 53.92 32.1727C56.3168 32.1727 57.8421 30.2814 57.8421 27.2657C57.8421 24.2501 56.3168 22.3674 53.9025 22.3674ZM53.3709 30.4906C51.802 30.4906 50.8171 29.2529 50.8171 27.2745C50.8171 25.2872 51.802 24.0496 53.3796 24.0496C54.9659 24.0496 55.9159 25.2611 55.9159 27.2657C55.9159 29.2791 54.9659 30.4906 53.3709 30.4906Z" fill="white"/>
<path d="M64.3992 22.3674C63.1092 22.3674 61.9936 23.0124 61.4184 24.0932H61.2789V22.5243H59.4747V35.171H61.3486V30.5777H61.4968C61.9936 31.5801 63.0656 32.1727 64.4166 32.1727C66.8134 32.1727 68.3387 30.2814 68.3387 27.2657C68.3387 24.2501 66.8134 22.3674 64.3992 22.3674ZM63.8675 30.4906C62.2987 30.4906 61.3138 29.2529 61.3138 27.2745C61.3138 25.2872 62.2987 24.0496 63.8762 24.0496C65.4625 24.0496 66.4125 25.2611 66.4125 27.2657C66.4125 29.2791 65.4625 30.4906 63.8675 30.4906Z" fill="white"/>
<path d="M45.616 32.0159H47.766L43.0595 18.9802H40.8823L36.1758 32.0159H38.2535L39.455 28.556H44.4235L45.616 32.0159ZM41.867 21.3471H42.0206L43.9086 26.8576H39.9699L41.867 21.3471Z" fill="white"/>
<path d="M37.4336 9.14535V15.4338H39.7041C41.578 15.4338 42.6631 14.279 42.6631 12.27C42.6631 10.2915 41.5693 9.14535 39.7041 9.14535H37.4336ZM38.4098 10.0344H39.5951C40.8981 10.0344 41.6695 10.8624 41.6695 12.283C41.6695 13.7255 40.9112 14.5448 39.5951 14.5448H38.4098V10.0344Z" fill="white"/>
<path d="M45.9864 15.5253C47.3722 15.5253 48.222 14.5971 48.222 13.0588C48.222 11.5291 47.3679 10.5965 45.9864 10.5965C44.6006 10.5965 43.7465 11.5291 43.7465 13.0588C43.7465 14.5971 44.5963 15.5253 45.9864 15.5253ZM45.9864 14.693C45.1715 14.693 44.7139 14.0959 44.7139 13.0588C44.7139 12.0303 45.1715 11.4289 45.9864 11.4289C46.797 11.4289 47.2589 12.0303 47.2589 13.0588C47.2589 14.0916 46.797 14.693 45.9864 14.693Z" fill="white"/>
<path d="M55.4588 10.688H54.5218L53.6764 14.3095H53.6023L52.6261 10.688H51.7284L50.7522 14.3095H50.6825L49.8327 10.688H48.8827L50.1901 15.4338H51.1532L52.1293 11.9388H52.2034L53.184 15.4338H54.1558L55.4588 10.688Z" fill="white"/>
<path d="M56.5378 15.4338H57.4747V12.6578C57.4747 11.917 57.9149 11.455 58.6078 11.455C59.3007 11.455 59.6319 11.8342 59.6319 12.5968V15.4338H60.5689V12.3615C60.5689 11.2328 59.9849 10.5965 58.9259 10.5965C58.2112 10.5965 57.7406 10.9147 57.5096 11.442H57.4399V10.688H56.5378V15.4338Z" fill="white"/>
<path d="M62.0445 15.4338H62.9814V8.83594H62.0445V15.4338Z" fill="white"/>
<path d="M66.5052 15.5253C67.891 15.5253 68.7408 14.5971 68.7408 13.0588C68.7408 11.5291 67.8867 10.5965 66.5052 10.5965C65.1194 10.5965 64.2652 11.5291 64.2652 13.0588C64.2652 14.5971 65.115 15.5253 66.5052 15.5253ZM66.5052 14.693C65.6903 14.693 65.2327 14.0959 65.2327 13.0588C65.2327 12.0303 65.6903 11.4289 66.5052 11.4289C67.3158 11.4289 67.7777 12.0303 67.7777 13.0588C67.7777 14.0916 67.3158 14.693 66.5052 14.693Z" fill="white"/>
<path d="M71.5325 14.7235C71.0226 14.7235 70.6522 14.4751 70.6522 14.048C70.6522 13.6296 70.9485 13.4074 71.6022 13.3638L72.7614 13.2897V13.6863C72.7614 14.2746 72.2385 14.7235 71.5325 14.7235ZM71.2928 15.5123C71.916 15.5123 72.4346 15.2421 72.7178 14.7671H72.7919V15.4338H73.694V12.1915C73.694 11.1892 73.0229 10.5965 71.8332 10.5965C70.7568 10.5965 69.9898 11.1195 69.8939 11.9344H70.8004C70.905 11.5989 71.2667 11.4071 71.7896 11.4071C72.4302 11.4071 72.7614 11.6904 72.7614 12.1915V12.6012L71.4758 12.6753C70.3471 12.745 69.7109 13.2374 69.7109 14.0916C69.7109 14.9588 70.3776 15.5123 71.2928 15.5123Z" fill="white"/>
<path d="M76.8735 15.5123C77.5272 15.5123 78.0807 15.2028 78.364 14.6843H78.438V15.4338H79.3358V8.83594H78.3988V11.442H78.3291C78.072 10.919 77.5229 10.6096 76.8735 10.6096C75.6751 10.6096 74.9038 11.5596 74.9038 13.0588C74.9038 14.5622 75.6664 15.5123 76.8735 15.5123ZM77.1394 11.4507C77.9238 11.4507 78.4162 12.0739 78.4162 13.0631C78.4162 14.0567 77.9282 14.6712 77.1394 14.6712C76.3462 14.6712 75.8712 14.0654 75.8712 13.0588C75.8712 12.0608 76.3506 11.4507 77.1394 11.4507Z" fill="white"/>
<path d="M85.4116 15.5253C86.7974 15.5253 87.6472 14.5971 87.6472 13.0588C87.6472 11.5291 86.793 10.5965 85.4116 10.5965C84.0258 10.5965 83.1716 11.5291 83.1716 13.0588C83.1716 14.5971 84.0214 15.5253 85.4116 15.5253ZM85.4116 14.693C84.5966 14.693 84.1391 14.0959 84.1391 13.0588C84.1391 12.0303 84.5966 11.4289 85.4116 11.4289C86.2221 11.4289 86.6841 12.0303 86.6841 13.0588C86.6841 14.0916 86.2221 14.693 85.4116 14.693Z" fill="white"/>
<path d="M88.8874 15.4338H89.8244V12.6578C89.8244 11.917 90.2645 11.455 90.9574 11.455C91.6504 11.455 91.9816 11.8342 91.9816 12.5968V15.4338H92.9185V12.3615C92.9185 11.2328 92.3345 10.5965 91.2756 10.5965C90.5609 10.5965 90.0902 10.9147 89.8592 11.442H89.7895V10.688H88.8874V15.4338Z" fill="white"/>
<path d="M97.2337 9.50706V10.7098H96.4798V11.4986H97.2337V14.1787C97.2337 15.0939 97.6477 15.46 98.6892 15.46C98.8723 15.46 99.0466 15.4382 99.1991 15.412V14.632C99.0684 14.645 98.9856 14.6537 98.8418 14.6537C98.3755 14.6537 98.1707 14.4359 98.1707 13.9391V11.4986H99.1991V10.7098H98.1707V9.50706H97.2337Z" fill="white"/>
<path d="M100.457 15.4338H101.394V12.6622C101.394 11.9431 101.821 11.4594 102.588 11.4594C103.25 11.4594 103.603 11.8429 103.603 12.6012V15.4338H104.54V12.3702C104.54 11.2415 103.917 10.6009 102.906 10.6009C102.191 10.6009 101.69 10.919 101.459 11.4507H101.385V8.83594H100.457V15.4338Z" fill="white"/>
<path d="M107.92 11.394C108.613 11.394 109.066 11.8778 109.088 12.623H106.691C106.744 11.8821 107.227 11.394 107.92 11.394ZM109.084 14.1526C108.909 14.523 108.522 14.7278 107.955 14.7278C107.205 14.7278 106.722 14.2005 106.691 13.3682V13.3159H110.042V12.989C110.042 11.4986 109.245 10.5965 107.925 10.5965C106.587 10.5965 105.737 11.5596 105.737 13.0762C105.737 14.5927 106.569 15.5253 107.929 15.5253C109.014 15.5253 109.772 15.0024 109.986 14.1526H109.084Z" fill="white"/>
<path d="M26.0079 21.3156C26.0306 19.5506 26.9785 17.8805 28.4823 16.956C27.5336 15.6011 25.9447 14.7421 24.2916 14.6904C22.5283 14.5053 20.819 15.7455 19.9205 15.7455C19.0046 15.7455 17.6212 14.7088 16.1316 14.7394C14.1899 14.8022 12.3797 15.9061 11.435 17.6037C9.40432 21.1195 10.919 26.2866 12.8643 29.1286C13.8375 30.5202 14.975 32.0747 16.4633 32.0195C17.9197 31.9591 18.4636 31.0908 20.2217 31.0908C21.9634 31.0908 22.4737 32.0195 23.9922 31.9845C25.555 31.9591 26.5396 30.5867 27.4787 29.1819C28.178 28.1903 28.7161 27.0944 29.0731 25.9348C27.2365 25.158 26.01 23.3097 26.0079 21.3156Z" fill="white"/>
<path d="M23.1396 12.8214C23.9917 11.7985 24.4115 10.4837 24.3099 9.15625C23.0081 9.29298 21.8055 9.91517 20.9419 10.8988C20.0974 11.8599 19.6579 13.1516 19.741 14.4283C21.0433 14.4417 22.3236 13.8364 23.1396 12.8214Z" fill="white"/>
</svg>
