<svg width="145" height="42" viewBox="0 0 145 42" fill="none" xmlns="http://www.w3.org/2000/svg">
<rect width="145" height="42" rx="10" fill="black"/>
<rect x="0.5" y="0.5" width="144" height="41" rx="9.5" stroke="#A6A6A6" stroke-opacity="0.44"/>
<path d="M49.875 30.4188H18C18.8036 22.3252 25.6324 16.0039 33.9375 16.0039C42.2427 16.0039 49.0714 22.3252 49.875 30.4188Z" fill="#3DDC84"/>
<path d="M25.9299 17.6058L22.7266 12" stroke="#3DDC84" stroke-width="2" stroke-linecap="round" stroke-linejoin="round"/>
<path d="M41.1445 17.6058L44.3478 12" stroke="#3DDC84" stroke-width="2" stroke-linecap="round" stroke-linejoin="round"/>
<path d="M26.7306 26.4143C27.6151 26.4143 28.3322 25.6972 28.3322 24.8126C28.3322 23.928 27.6151 23.2109 26.7306 23.2109C25.846 23.2109 25.1289 23.928 25.1289 24.8126C25.1289 25.6972 25.846 26.4143 26.7306 26.4143Z" fill="#141414"/>
<path d="M41.1446 26.4143C42.0292 26.4143 42.7463 25.6972 42.7463 24.8126C42.7463 23.928 42.0292 23.2109 41.1446 23.2109C40.2601 23.2109 39.543 23.928 39.543 24.8126C39.543 25.6972 40.2601 26.4143 41.1446 26.4143Z" fill="#141414"/>
<path d="M121.086 30.9219V18.75H123.331V33H121.299L121.086 30.9219ZM114.555 28.0923V27.8975C114.555 27.1367 114.644 26.444 114.824 25.8193C115.003 25.1885 115.263 24.6473 115.603 24.1958C115.943 23.7381 116.358 23.3887 116.846 23.1475C117.335 22.9001 117.885 22.7764 118.498 22.7764C119.104 22.7764 119.636 22.8939 120.093 23.1289C120.551 23.3639 120.941 23.701 121.262 24.1401C121.584 24.5731 121.84 25.0926 122.032 25.6987C122.224 26.2987 122.36 26.9666 122.44 27.7026V28.3242C122.36 29.0417 122.224 29.6973 122.032 30.291C121.84 30.8848 121.584 31.3981 121.262 31.8311C120.941 32.264 120.548 32.598 120.084 32.833C119.626 33.068 119.091 33.1855 118.479 33.1855C117.873 33.1855 117.326 33.0588 116.837 32.8052C116.354 32.5516 115.943 32.196 115.603 31.7383C115.263 31.2806 115.003 30.7425 114.824 30.124C114.644 29.4993 114.555 28.8221 114.555 28.0923ZM116.791 27.8975V28.0923C116.791 28.55 116.831 28.9767 116.911 29.3726C116.998 29.7684 117.131 30.1178 117.31 30.4209C117.489 30.7178 117.721 30.9528 118.006 31.126C118.297 31.293 118.643 31.3765 119.045 31.3765C119.552 31.3765 119.97 31.2651 120.297 31.0425C120.625 30.8198 120.882 30.5199 121.067 30.1426C121.259 29.7591 121.389 29.3324 121.457 28.8623V27.1831C121.42 26.8182 121.343 26.478 121.225 26.1626C121.114 25.8472 120.962 25.5719 120.771 25.3369C120.579 25.0957 120.341 24.9102 120.056 24.7803C119.778 24.6442 119.447 24.5762 119.063 24.5762C118.655 24.5762 118.309 24.6628 118.024 24.8359C117.74 25.0091 117.505 25.2472 117.319 25.5503C117.14 25.8534 117.007 26.2059 116.92 26.6079C116.834 27.0099 116.791 27.4398 116.791 27.8975Z" fill="white"/>
<path d="M112.515 22.9629V33.001H110.27V22.9629H112.515ZM110.121 20.3281C110.121 19.988 110.232 19.7065 110.455 19.4839C110.684 19.255 110.999 19.1406 111.401 19.1406C111.797 19.1406 112.11 19.255 112.338 19.4839C112.567 19.7065 112.682 19.988 112.682 20.3281C112.682 20.6621 112.567 20.9404 112.338 21.1631C112.11 21.3857 111.797 21.4971 111.401 21.4971C110.999 21.4971 110.684 21.3857 110.455 21.1631C110.232 20.9404 110.121 20.6621 110.121 20.3281Z" fill="white"/>
<path d="M98.9141 28.0933V27.8799C98.9141 27.1562 99.0192 26.4852 99.2295 25.8667C99.4398 25.242 99.7428 24.7008 100.139 24.2432C100.541 23.7793 101.029 23.4206 101.604 23.167C102.186 22.9072 102.841 22.7773 103.571 22.7773C104.307 22.7773 104.963 22.9072 105.538 23.167C106.119 23.4206 106.611 23.7793 107.013 24.2432C107.415 24.7008 107.721 25.242 107.932 25.8667C108.142 26.4852 108.247 27.1562 108.247 27.8799V28.0933C108.247 28.8169 108.142 29.488 107.932 30.1064C107.721 30.7249 107.415 31.2661 107.013 31.73C106.611 32.1877 106.123 32.5464 105.547 32.8062C104.972 33.0597 104.32 33.1865 103.59 33.1865C102.854 33.1865 102.195 33.0597 101.614 32.8062C101.039 32.5464 100.55 32.1877 100.148 31.73C99.7459 31.2661 99.4398 30.7249 99.2295 30.1064C99.0192 29.488 98.9141 28.8169 98.9141 28.0933ZM101.15 27.8799V28.0933C101.15 28.5448 101.196 28.9715 101.289 29.3735C101.382 29.7756 101.527 30.1281 101.725 30.4312C101.923 30.7342 102.177 30.9723 102.486 31.1455C102.795 31.3187 103.163 31.4053 103.59 31.4053C104.004 31.4053 104.363 31.3187 104.666 31.1455C104.975 30.9723 105.229 30.7342 105.427 30.4312C105.625 30.1281 105.77 29.7756 105.863 29.3735C105.962 28.9715 106.011 28.5448 106.011 28.0933V27.8799C106.011 27.4346 105.962 27.014 105.863 26.6182C105.77 26.2161 105.622 25.8605 105.417 25.5513C105.22 25.242 104.966 25.0008 104.657 24.8276C104.354 24.6483 103.992 24.5586 103.571 24.5586C103.151 24.5586 102.786 24.6483 102.477 24.8276C102.174 25.0008 101.923 25.242 101.725 25.5513C101.527 25.8605 101.382 26.2161 101.289 26.6182C101.196 27.014 101.15 27.4346 101.15 27.8799Z" fill="white"/>
<path d="M95.1108 24.874V33.001H92.875V22.9629H95.0088L95.1108 24.874ZM98.1816 22.8979L98.1631 24.9761C98.027 24.9513 97.8786 24.9328 97.7178 24.9204C97.5632 24.908 97.4085 24.9019 97.2539 24.9019C96.8704 24.9019 96.5334 24.9575 96.2427 25.0688C95.952 25.174 95.7077 25.3286 95.5098 25.5327C95.318 25.7306 95.1696 25.9718 95.0645 26.2563C94.9593 26.5409 94.8975 26.8594 94.8789 27.2119L94.3687 27.249C94.3687 26.6182 94.4305 26.0337 94.5542 25.4956C94.6779 24.9575 94.8634 24.4844 95.1108 24.0762C95.3644 23.668 95.6799 23.3494 96.0571 23.1206C96.4406 22.8918 96.8828 22.7773 97.3838 22.7773C97.5199 22.7773 97.6652 22.7897 97.8198 22.8145C97.9806 22.8392 98.1012 22.867 98.1816 22.8979Z" fill="white"/>
<path d="M88.2812 30.9219V18.75H90.5264V33H88.4946L88.2812 30.9219ZM81.75 28.0923V27.8975C81.75 27.1367 81.8397 26.444 82.019 25.8193C82.1984 25.1885 82.4582 24.6473 82.7983 24.1958C83.1385 23.7381 83.5529 23.3887 84.0415 23.1475C84.5301 22.9001 85.0806 22.7764 85.6929 22.7764C86.299 22.7764 86.8309 22.8939 87.2886 23.1289C87.7463 23.3639 88.1359 23.701 88.4575 24.1401C88.7791 24.5731 89.0358 25.0926 89.2275 25.6987C89.4193 26.2987 89.5553 26.9666 89.6357 27.7026V28.3242C89.5553 29.0417 89.4193 29.6973 89.2275 30.291C89.0358 30.8848 88.7791 31.3981 88.4575 31.8311C88.1359 32.264 87.7432 32.598 87.2793 32.833C86.8216 33.068 86.2866 33.1855 85.6743 33.1855C85.0682 33.1855 84.5208 33.0588 84.0322 32.8052C83.5498 32.5516 83.1385 32.196 82.7983 31.7383C82.4582 31.2806 82.1984 30.7425 82.019 30.124C81.8397 29.4993 81.75 28.8221 81.75 28.0923ZM83.9858 27.8975V28.0923C83.9858 28.55 84.026 28.9767 84.1064 29.3726C84.193 29.7684 84.326 30.1178 84.5054 30.4209C84.6847 30.7178 84.9167 30.9528 85.2012 31.126C85.4919 31.293 85.8382 31.3765 86.2402 31.3765C86.7474 31.3765 87.1649 31.2651 87.4927 31.0425C87.8205 30.8198 88.0771 30.5199 88.2627 30.1426C88.4544 29.7591 88.5843 29.3324 88.6523 28.8623V27.1831C88.6152 26.8182 88.5379 26.478 88.4204 26.1626C88.3091 25.8472 88.1576 25.5719 87.9658 25.3369C87.7741 25.0957 87.536 24.9102 87.2515 24.7803C86.9731 24.6442 86.6423 24.5762 86.2588 24.5762C85.8506 24.5762 85.5042 24.6628 85.2197 24.8359C84.9352 25.0091 84.7002 25.2472 84.5146 25.5503C84.3353 25.8534 84.2023 26.2059 84.1157 26.6079C84.0291 27.0099 83.9858 27.4398 83.9858 27.8975Z" fill="white"/>
<path d="M73.8003 25.106V33.001H71.5645V22.9629H73.6704L73.8003 25.106ZM73.4014 27.6108L72.6777 27.6016C72.6839 26.8903 72.7829 26.2378 72.9746 25.644C73.1725 25.0503 73.4447 24.54 73.791 24.1133C74.1436 23.6865 74.5641 23.3587 75.0527 23.1299C75.5413 22.8949 76.0856 22.7773 76.6855 22.7773C77.168 22.7773 77.604 22.8454 77.9937 22.9814C78.3895 23.1113 78.7266 23.3247 79.0049 23.6216C79.2894 23.9185 79.5059 24.305 79.6543 24.7812C79.8027 25.2513 79.877 25.8296 79.877 26.5161V33.001H77.6318V26.5068C77.6318 26.0244 77.5607 25.644 77.4185 25.3657C77.2824 25.0812 77.0814 24.8802 76.8154 24.7627C76.5557 24.639 76.231 24.5771 75.8413 24.5771C75.4578 24.5771 75.1146 24.6576 74.8115 24.8184C74.5085 24.9792 74.2518 25.1987 74.0415 25.4771C73.8374 25.7554 73.6797 26.077 73.5684 26.4419C73.457 26.8068 73.4014 27.1965 73.4014 27.6108Z" fill="white"/>
<path d="M64.6338 21.292L60.5981 33H58.1582L63.2422 19.4922H64.8008L64.6338 21.292ZM68.0107 33L63.9658 21.292L63.7896 19.4922H65.3574L70.46 33H68.0107ZM67.8159 27.9902V29.8364H60.4683V27.9902H67.8159Z" fill="white"/>
<path d="M122.973 9.93506V13.9985H121.855V8.97949H122.922L122.973 9.93506ZM124.509 8.94702L124.5 9.98608C124.431 9.97371 124.357 9.96444 124.277 9.95825C124.2 9.95207 124.122 9.94897 124.045 9.94897C123.853 9.94897 123.685 9.97681 123.539 10.0325C123.394 10.085 123.272 10.1624 123.173 10.2644C123.077 10.3634 123.003 10.484 122.95 10.6262C122.898 10.7685 122.867 10.9277 122.857 11.104L122.602 11.1226C122.602 10.8071 122.633 10.5149 122.695 10.2458C122.757 9.97681 122.85 9.74023 122.973 9.53613C123.1 9.33203 123.258 9.17277 123.447 9.05835C123.638 8.94393 123.859 8.88672 124.11 8.88672C124.178 8.88672 124.251 8.8929 124.328 8.90527C124.408 8.91764 124.469 8.93156 124.509 8.94702Z" fill="white"/>
<path d="M116.059 11.5447V11.438C116.059 11.0762 116.111 10.7406 116.216 10.4314C116.321 10.1191 116.473 9.84847 116.671 9.61963C116.872 9.3877 117.116 9.20833 117.404 9.08154C117.694 8.95166 118.022 8.88672 118.387 8.88672C118.755 8.88672 119.083 8.95166 119.371 9.08154C119.661 9.20833 119.907 9.3877 120.108 9.61963C120.309 9.84847 120.462 10.1191 120.567 10.4314C120.673 10.7406 120.725 11.0762 120.725 11.438V11.5447C120.725 11.9065 120.673 12.242 120.567 12.5513C120.462 12.8605 120.309 13.1311 120.108 13.363C119.907 13.5919 119.663 13.7712 119.375 13.9011C119.088 14.0279 118.761 14.0913 118.396 14.0913C118.028 14.0913 117.699 14.0279 117.408 13.9011C117.121 13.7712 116.877 13.5919 116.676 13.363C116.475 13.1311 116.321 12.8605 116.216 12.5513C116.111 12.242 116.059 11.9065 116.059 11.5447ZM117.177 11.438V11.5447C117.177 11.7704 117.2 11.9838 117.246 12.1848C117.292 12.3858 117.365 12.5621 117.464 12.7136C117.563 12.8652 117.69 12.9842 117.844 13.0708C117.999 13.1574 118.183 13.2007 118.396 13.2007C118.604 13.2007 118.783 13.1574 118.935 13.0708C119.089 12.9842 119.216 12.8652 119.315 12.7136C119.414 12.5621 119.487 12.3858 119.533 12.1848C119.582 11.9838 119.607 11.7704 119.607 11.5447V11.438C119.607 11.2153 119.582 11.005 119.533 10.8071C119.487 10.6061 119.412 10.4283 119.31 10.2737C119.211 10.1191 119.085 9.99845 118.93 9.91187C118.778 9.82218 118.597 9.77734 118.387 9.77734C118.177 9.77734 117.994 9.82218 117.84 9.91187C117.688 9.99845 117.563 10.1191 117.464 10.2737C117.365 10.4283 117.292 10.6061 117.246 10.8071C117.2 11.005 117.177 11.2153 117.177 11.438Z" fill="white"/>
<path d="M112.227 7.24609V14H111.062V7.24609H112.227ZM114.982 10.2009V11.124H111.93V10.2009H114.982ZM115.367 7.24609V8.17383H111.93V7.24609H115.367Z" fill="white"/>
<path d="M103.479 7.24609V14H102.314V7.24609H103.479ZM107.538 7.24609L104.801 10.4978L103.242 12.1492L103.038 10.9941L104.151 9.62109L106.118 7.24609H107.538ZM106.285 14L104.063 10.7993L104.866 10.0061L107.667 14H106.285Z" fill="white"/>
<path d="M98.6218 11.4812H96.8638V10.5581H98.6218C98.928 10.5581 99.1754 10.5086 99.364 10.4097C99.5527 10.3107 99.6903 10.1746 99.7769 10.0015C99.8665 9.8252 99.9114 9.62419 99.9114 9.39844C99.9114 9.18506 99.8665 8.9856 99.7769 8.80005C99.6903 8.61141 99.5527 8.45988 99.364 8.34546C99.1754 8.23104 98.928 8.17383 98.6218 8.17383H97.2209V14H96.0566V7.24609H98.6218C99.1444 7.24609 99.5882 7.33887 99.9531 7.52441C100.321 7.70687 100.601 7.96045 100.793 8.28516C100.984 8.60677 101.08 8.97477 101.08 9.38916C101.08 9.8252 100.984 10.1994 100.793 10.5117C100.601 10.8241 100.321 11.0637 99.9531 11.2307C99.5882 11.3977 99.1444 11.4812 98.6218 11.4812Z" fill="white"/>
<path d="M92.1968 8.146L90.179 14H88.959L91.501 7.24609H92.2803L92.1968 8.146ZM93.8853 14L91.8628 8.146L91.7747 7.24609H92.5586L95.1099 14H93.8853ZM93.7878 11.4951V12.4182H90.114V11.4951H93.7878Z" fill="white"/>
<path d="M85.4858 6.875V14H84.3633V6.875H85.4858Z" fill="white"/>
<path d="M82.8745 6.875V14H81.752V6.875H82.8745Z" fill="white"/>
<path d="M79.1973 12.9919V10.5984C79.1973 10.419 79.1648 10.2644 79.0999 10.1345C79.0349 10.0046 78.936 9.90413 78.803 9.83301C78.6731 9.76188 78.5092 9.72632 78.3113 9.72632C78.1288 9.72632 77.9711 9.75724 77.8381 9.81909C77.7052 9.88094 77.6016 9.96444 77.5273 10.0696C77.4531 10.1747 77.416 10.2938 77.416 10.4268H76.3027C76.3027 10.2288 76.3507 10.0371 76.4465 9.85156C76.5424 9.66602 76.6816 9.50057 76.864 9.35522C77.0465 9.20988 77.2645 9.09546 77.5181 9.01196C77.7716 8.92847 78.0562 8.88672 78.3716 8.88672C78.7489 8.88672 79.0828 8.95011 79.3735 9.0769C79.6673 9.20369 79.8977 9.39543 80.0647 9.6521C80.2348 9.90568 80.3198 10.2242 80.3198 10.6077V12.8389C80.3198 13.0677 80.3353 13.2734 80.3662 13.4558C80.4002 13.6352 80.4482 13.7913 80.51 13.9243V13.9985H79.3643C79.3117 13.8779 79.2699 13.7249 79.239 13.5393C79.2112 13.3507 79.1973 13.1682 79.1973 12.9919ZM79.3596 10.9463L79.3689 11.6375H78.5664C78.3592 11.6375 78.1768 11.6576 78.019 11.6978C77.8613 11.7349 77.7299 11.7905 77.6248 11.8647C77.5196 11.939 77.4408 12.0286 77.3882 12.1338C77.3356 12.2389 77.3093 12.358 77.3093 12.491C77.3093 12.6239 77.3403 12.7461 77.4021 12.8574C77.4639 12.9657 77.5536 13.0507 77.6711 13.1125C77.7917 13.1744 77.9371 13.2053 78.1072 13.2053C78.336 13.2053 78.5355 13.1589 78.7056 13.0662C78.8787 12.9703 79.0148 12.8543 79.1138 12.7183C79.2127 12.5791 79.2653 12.4477 79.2715 12.324L79.6333 12.8203C79.5962 12.9471 79.5328 13.0832 79.4431 13.2285C79.3534 13.3739 79.2359 13.513 79.0906 13.646C78.9483 13.7759 78.7767 13.8826 78.5757 13.9661C78.3778 14.0496 78.1489 14.0913 77.8892 14.0913C77.5614 14.0913 77.2691 14.0264 77.0125 13.8965C76.7558 13.7635 76.5548 13.5857 76.4094 13.363C76.2641 13.1373 76.1914 12.8822 76.1914 12.5977C76.1914 12.3317 76.2409 12.0967 76.3398 11.8926C76.4419 11.6854 76.5903 11.5122 76.7852 11.373C76.9831 11.2339 77.2243 11.1287 77.5088 11.0576C77.7933 10.9834 78.118 10.9463 78.4829 10.9463H79.3596Z" fill="white"/>
<path d="M75.314 8.97925V9.79565H72.4844V8.97925H75.314ZM73.3008 7.75H74.4187V12.6113C74.4187 12.766 74.4403 12.885 74.4836 12.9685C74.53 13.0489 74.5934 13.103 74.6738 13.1309C74.7542 13.1587 74.8486 13.1726 74.9568 13.1726C75.0341 13.1726 75.1083 13.168 75.1794 13.1587C75.2506 13.1494 75.3078 13.1401 75.3511 13.1309L75.3557 13.9844C75.2629 14.0122 75.1547 14.0369 75.031 14.0586C74.9104 14.0802 74.7712 14.0911 74.6135 14.0911C74.3569 14.0911 74.1296 14.0462 73.9316 13.9565C73.7337 13.8638 73.5791 13.7138 73.4678 13.5066C73.3564 13.2994 73.3008 13.0242 73.3008 12.6809V7.75Z" fill="white"/>
<path d="M70.7495 12.6394C70.7495 12.5281 70.7217 12.4276 70.666 12.3379C70.6104 12.2451 70.5037 12.1616 70.3459 12.0874C70.1913 12.0132 69.9625 11.9451 69.6594 11.8833C69.3935 11.8245 69.1492 11.755 68.9265 11.6746C68.7069 11.5911 68.5183 11.4906 68.3606 11.373C68.2029 11.2555 68.0807 11.1164 67.9941 10.9556C67.9076 10.7948 67.8643 10.6092 67.8643 10.3989C67.8643 10.1948 67.9091 10.0015 67.9988 9.81909C68.0885 9.63664 68.2168 9.47583 68.3838 9.33667C68.5508 9.19751 68.7533 9.08773 68.9915 9.00732C69.2327 8.92692 69.5017 8.88672 69.7986 8.88672C70.2192 8.88672 70.5794 8.95785 70.8794 9.1001C71.1825 9.23926 71.4144 9.42944 71.5752 9.67065C71.736 9.90877 71.8164 10.1778 71.8164 10.4778H70.6985C70.6985 10.3448 70.6645 10.2211 70.5964 10.1067C70.5315 9.98918 70.4325 9.89486 70.2996 9.82373C70.1666 9.74951 69.9996 9.7124 69.7986 9.7124C69.6069 9.7124 69.4476 9.74333 69.3208 9.80518C69.1971 9.86393 69.1043 9.94124 69.0425 10.0371C68.9837 10.133 68.9543 10.2381 68.9543 10.3525C68.9543 10.436 68.9698 10.5118 69.0007 10.5798C69.0347 10.6448 69.0904 10.7051 69.1677 10.7607C69.245 10.8133 69.3502 10.8628 69.4832 10.9092C69.6192 10.9556 69.7893 11.0004 69.9934 11.0437C70.3769 11.1241 70.7062 11.2277 70.9814 11.3545C71.2598 11.4782 71.4731 11.639 71.6216 11.8369C71.77 12.0317 71.8442 12.2791 71.8442 12.5791C71.8442 12.8018 71.7963 13.0059 71.7004 13.1914C71.6077 13.3739 71.4716 13.5331 71.2922 13.6692C71.1129 13.8022 70.8979 13.9058 70.6475 13.98C70.4001 14.0542 70.1217 14.0913 69.8125 14.0913C69.3579 14.0913 68.9729 14.0109 68.6575 13.8501C68.342 13.6862 68.1024 13.4775 67.9385 13.2239C67.7777 12.9672 67.6973 12.7013 67.6973 12.426H68.7781C68.7904 12.6332 68.8477 12.7987 68.9497 12.9224C69.0549 13.043 69.1847 13.1311 69.3394 13.1868C69.4971 13.2393 69.6594 13.2656 69.8264 13.2656C70.0274 13.2656 70.196 13.2393 70.332 13.1868C70.4681 13.1311 70.5717 13.0569 70.6428 12.9641C70.7139 12.8682 70.7495 12.76 70.7495 12.6394Z" fill="white"/>
<path d="M63.5652 10.051V13.9985H62.4473V8.97949H63.5002L63.5652 10.051ZM63.3657 11.3035L63.0039 11.2988C63.007 10.9432 63.0565 10.6169 63.1523 10.3201C63.2513 10.0232 63.3874 9.76807 63.5605 9.55469C63.7368 9.34131 63.9471 9.17741 64.1914 9.06299C64.4357 8.94548 64.7078 8.88672 65.0078 8.88672C65.249 8.88672 65.467 8.92074 65.6619 8.98877C65.8598 9.05371 66.0283 9.1604 66.1675 9.30884C66.3097 9.45728 66.418 9.65055 66.4922 9.88867C66.5664 10.1237 66.6035 10.4128 66.6035 10.7561V13.9985H65.481V10.7515C65.481 10.5103 65.4454 10.3201 65.3743 10.1809C65.3062 10.0387 65.2057 9.93815 65.0728 9.87939C64.9429 9.81755 64.7805 9.78662 64.5857 9.78662C64.394 9.78662 64.2223 9.82682 64.0708 9.90723C63.9193 9.98763 63.7909 10.0974 63.6858 10.2366C63.5837 10.3757 63.5049 10.5365 63.4492 10.719C63.3936 10.9014 63.3657 11.0963 63.3657 11.3035Z" fill="white"/>
<path d="M60.9299 7.24609V14H59.7656V7.24609H60.9299Z" fill="white"/>
</svg>
