<svg xmlns="http://www.w3.org/2000/svg" width="2485" height="555" viewBox="0 0 2485 555" fill="none">
    <path fill-rule="evenodd" clip-rule="evenodd" d="M1338.73 187.608C1346.86 193.459 1354.55 200.225 1361.53 207.545L1414.48 161.579C1353.97 81.1092 1212.63 68.3958 1155.35 155.511C1125.54 200.779 1133.58 259.819 1197.99 290.061C1239.48 309.541 1300.68 302.558 1325.43 337.736C1348.24 370.29 1316.62 413.27 1246.12 390.564C1215.4 380.716 1190.52 363.067 1173.45 341.974L1123.95 393.791C1180.56 449.605 1264.23 478.499 1341.59 450.182C1399.02 429.21 1425.6 372.241 1408.41 325.36C1386.62 265.983 1318.67 258.759 1262.74 242.266C1216.77 228.734 1212.99 192.183 1238.1 174.292C1268.25 152.742 1312.02 168.225 1338.73 187.367" fill="#131418"/>
    <path fill-rule="evenodd" clip-rule="evenodd" d="M1669.61 181.42V452.494H1585.82V181.42H1453.22V103.478H1802.33V181.42H1669.61Z" fill="#131418"/>
    <path fill-rule="evenodd" clip-rule="evenodd" d="M2406.94 298.344L2484.21 452.494H2400.42L2323.17 298.344H2406.94Z" fill="#131418"/>
    <path fill-rule="evenodd" clip-rule="evenodd" d="M2220.57 103.478H2352.74C2414.84 103.478 2465.74 154.259 2465.74 216.478C2465.74 278.696 2414.96 329.478 2352.74 329.478H2220.57V255.099H2336.1C2357.31 255.099 2374.72 237.667 2374.72 216.478C2374.72 195.289 2357.31 177.856 2336.1 177.856H2220.57V103.478Z" fill="#131418"/>
    <path d="M2232.49 103.478H2148.7V452.47H2232.49V103.478Z" fill="#131418"/>
    <path fill-rule="evenodd" clip-rule="evenodd" d="M1038.21 103.478H1125.54L994.648 419.362L979.984 452.494H921.979L907.316 419.362L776.546 103.478H863.758L950.97 320.328L1038.21 103.478Z" fill="#131418"/>
    <path fill-rule="evenodd" clip-rule="evenodd" d="M2021.59 452.494H2108.83L1977.94 136.61L1963.37 103.478H1905.27L1890.7 136.61L1759.81 452.494H1847.02L1934.35 235.524L2021.57 452.494H2021.59Z" fill="#131418"/>
    <mask id="mask0_320_2508" style="mask-type:luminance" maskUnits="userSpaceOnUse" x="0" y="0" width="684" height="556">
        <path d="M683.959 0H0.0126953V555.007H683.959V0Z" fill="white"/>
    </mask>
    <g mask="url(#mask0_320_2508)">
        <path fill-rule="evenodd" clip-rule="evenodd" d="M351.286 124.799L475.458 248.972L511.6 212.83L387.331 88.5614C384.803 86.0331 384.803 81.9157 387.331 79.3634L452.535 14.1592C465.225 1.46989 485.932 1.46989 498.621 14.1592L674.249 189.787C686.938 202.476 686.938 223.184 674.249 235.873L609.045 301.077C609.045 301.077 608.419 301.703 607.985 301.92L564.452 345.357C564.452 345.357 563.922 346.104 563.609 346.417L479.912 430.113C477.384 432.641 473.243 432.641 470.715 430.113L258.199 217.501C255.671 214.973 255.671 210.855 258.199 208.303L341.799 124.607C344.327 122.078 348.469 122.078 350.997 124.607" fill="#131418"/>
        <path fill-rule="evenodd" clip-rule="evenodd" d="M176.815 217.596L430.216 470.997C432.744 473.526 432.744 477.667 430.216 480.195L365.012 545.4C352.323 558.089 331.615 558.089 318.926 545.4L9.51893 236.089C-3.17037 223.399 -3.17037 202.692 9.51893 190.003L189.914 9.51112C202.603 -3.17819 223.311 -3.17819 236 9.51112L301.204 74.7154C303.732 77.2436 303.732 81.3851 301.204 83.9133L176.815 208.302C174.287 210.83 174.287 214.948 176.815 217.5" fill="#131418"/>
        <path fill-rule="evenodd" clip-rule="evenodd" d="M176.816 217.598L430.216 470.998C432.745 473.527 432.745 477.668 430.216 480.196L365.012 545.401C352.323 558.09 331.616 558.09 318.926 545.401L125.746 352.22C100.391 326.865 100.271 285.643 125.529 260.168C142.745 242.832 159.768 225.303 176.792 208.279C174.263 210.808 174.263 214.925 176.792 217.477" fill="url(#paint0_linear_320_2508)"/>
        <path fill-rule="evenodd" clip-rule="evenodd" d="M507.145 217.598L253.744 470.998C251.216 473.527 251.216 477.644 253.744 480.196L318.948 545.401C331.637 558.09 352.345 558.09 365.034 545.401L558.215 352.22C583.569 326.865 583.69 285.643 558.431 260.168C541.215 242.832 524.192 225.303 507.169 208.279C509.697 210.808 509.697 214.949 507.169 217.477" fill="url(#paint1_linear_320_2508)"/>
    </g>
    <defs>
        <linearGradient id="paint0_linear_320_2508" x1="141" y1="12" x2="295" y2="508" gradientUnits="userSpaceOnUse">
            <stop stop-color="#14161D"/>
            <stop offset="1" stop-color="#30364B" stop-opacity="0"/>
        </linearGradient>
        <linearGradient id="paint1_linear_320_2508" x1="665" y1="338" x2="391.448" y2="389.902" gradientUnits="userSpaceOnUse">
            <stop stop-color="#14161D"/>
            <stop offset="0.649032" stop-color="#30364B" stop-opacity="0"/>
        </linearGradient>
    </defs>
</svg>