<svg xmlns="http://www.w3.org/2000/svg" width="2485" height="570" viewBox="0 0 2485 570" fill="none">
    <path fill-rule="evenodd" clip-rule="evenodd" d="M1398.93 192.053C1406.53 197.479 1414.13 203.989 1420.64 210.5L1470.56 167.097C1413.04 91.1416 1279.55 79.2058 1225.29 161.671C1197.07 205.074 1204.67 260.413 1265.44 288.625C1304.51 307.071 1363.12 300.561 1385.91 334.198C1407.61 364.58 1377.23 405.813 1311.02 384.111C1281.72 374.346 1258.93 358.07 1242.65 338.538L1195.98 387.367C1249.16 440.535 1328.39 467.662 1402.19 440.535C1456.45 421.004 1481.41 366.75 1465.13 322.262C1444.51 265.838 1380.48 259.328 1327.3 244.137C1283.89 231.116 1280.64 196.394 1304.51 180.118C1332.73 159.501 1373.97 174.692 1398.93 192.053Z" fill="#FEFEFE"/>
    <path fill-rule="evenodd" clip-rule="evenodd" d="M1712.58 186.637V443.799H1633.35V186.637H1507.46V112.852H1838.47V186.637H1712.58Z" fill="#FEFEFE"/>
    <path fill-rule="evenodd" clip-rule="evenodd" d="M2410.41 297.314L2484.21 443.799H2404.98L2331.19 297.314H2410.41Z" fill="#FEFEFE"/>
    <path fill-rule="evenodd" clip-rule="evenodd" d="M2234.6 112.852H2359.41C2418.01 112.852 2466.85 160.595 2466.85 220.274C2466.85 278.868 2419.1 327.696 2359.41 327.696H2234.6V257.167H2344.22C2364.84 257.167 2381.11 240.891 2381.11 220.274C2381.11 199.658 2364.84 183.382 2344.22 183.382H2234.6V112.852Z" fill="#FEFEFE"/>
    <path d="M2245.45 112.852H2166.22V443.799H2245.45V112.852Z" fill="#FEFEFE"/>
    <path fill-rule="evenodd" clip-rule="evenodd" d="M1114.59 112.852H1197.07L1073.35 412.332L1059.24 443.799H1004.98L990.868 412.332L867.146 112.852H949.627L1032.11 317.931L1114.59 112.852Z" fill="#FEFEFE"/>
    <path fill-rule="evenodd" clip-rule="evenodd" d="M2045.76 443.799H2128.24L2004.52 144.319L1990.41 112.852H1936.15L1922.04 144.319L1798.32 443.799H1880.8L1963.28 237.635L2045.76 443.799Z" fill="#FEFEFE"/>
    <path fill-rule="evenodd" clip-rule="evenodd" d="M360.595 128.525L488.034 255.939L524.807 219.172L398.003 91.1247C395.466 88.5891 395.466 84.1518 398.003 81.6162L464.575 15.0567C477.889 1.7448 498.812 1.7448 512.126 15.0567L692.189 195.084C705.503 208.396 705.503 229.315 692.189 242.627L625.616 309.186C624.982 309.82 624.982 309.82 624.348 309.82L579.967 354.193C579.967 354.827 579.333 354.827 579.333 355.461L493.106 441.671C490.57 444.207 486.132 444.207 483.595 441.671L265.492 223.61C262.956 221.074 262.956 216.637 265.492 214.101L351.085 128.525C354.255 125.989 358.059 125.989 360.595 128.525Z" fill="white"/>
    <path fill-rule="evenodd" clip-rule="evenodd" d="M181.806 223.608L441.755 483.507C444.291 486.043 444.291 490.48 441.755 493.016L375.183 559.575C361.868 572.887 340.945 572.887 327.631 559.575L9.98585 242.625C-3.32862 229.313 -3.32862 208.395 9.98585 195.083L195.12 9.98392C208.435 -3.32797 229.357 -3.32797 242.672 9.98392L309.244 76.5434C311.78 79.079 311.78 83.5163 309.244 86.0519L181.806 214.1C179.27 216.635 179.27 221.073 181.806 223.608Z" fill="white"/>
    <path fill-rule="evenodd" clip-rule="evenodd" d="M181.806 223.611L441.755 483.51C444.291 486.045 444.291 490.482 441.755 493.018L375.182 559.577C361.868 572.889 340.945 572.889 327.631 559.577L129.182 361.801C103.187 335.811 103.187 293.34 129.182 267.35C146.934 249.6 164.053 231.851 181.806 214.102C179.269 216.638 179.269 221.075 181.806 223.611Z" fill="url(#paint0_linear_320_2479)"/>
    <path fill-rule="evenodd" clip-rule="evenodd" d="M520.37 223.611L397.994 345.958C395.458 348.494 395.458 352.931 397.994 355.467L464.566 422.026C477.881 435.338 498.803 435.338 512.118 422.026L572.994 361.801C598.989 335.811 598.989 293.34 572.994 267.35C555.241 249.6 538.123 231.851 520.37 214.102C523.54 216.638 523.54 221.075 520.37 223.611Z" fill="url(#paint1_linear_320_2479)"/>
    <defs>
        <linearGradient id="paint0_linear_320_2479" x1="165.323" y1="247.704" x2="216.028" y2="374.49" gradientUnits="userSpaceOnUse">
            <stop stop-color="#B6B6B7"/>
            <stop offset="1" stop-color="white"/>
        </linearGradient>
        <linearGradient id="paint1_linear_320_2479" x1="561.581" y1="244.534" x2="479.16" y2="263.558" gradientUnits="userSpaceOnUse">
            <stop stop-color="#B6B6B7"/>
            <stop offset="1" stop-color="white"/>
        </linearGradient>
    </defs>
</svg>